<svg version="1.1" xmlns="http://www.w3.org/2000/svg" xmlns:xlink="http://www.w3.org/1999/xlink" width="932" height="820"><defs/><g><g transform="translate(-62,-38) scale(1,1)"><rect fill="#C0C0C0" stroke="none" x="199" y="55" width="249.60000000000002" height="15" opacity="0.2"/></g><g transform="translate(-62,-38) scale(1,1)"><rect fill="#C0C0C0" stroke="none" x="199" y="69" width="624" height="786" opacity="0.2"/></g><g transform="translate(-62,-38) scale(1,1)"><rect fill="#ffffff" stroke="none" x="192" y="63" width="624" height="785"/></g><g transform="translate(-62,-38) scale(1,1)"><path fill="none" stroke="#000000" d="M 192 63 L 816 63 L 816 848 L 192 848 L 192 63 Z Z" stroke-miterlimit="10"/></g><g transform="translate(-62,-38) scale(1,1)"><rect fill="#ffffff" stroke="none" x="192" y="48" width="249.60000000000002" height="15"/></g><g transform="translate(-62,-38) scale(1,1)"><path fill="none" stroke="#000000" d="M 192 48 L 441.6 48 L 441.6 63 L 192 63 L 192 48 Z Z" stroke-miterlimit="10"/></g><g transform="translate(-62,-38) scale(1,1)"><rect fill="#ffffff" stroke="none" x="192" y="62" width="624" height="786"/></g><g transform="translate(-62,-38) scale(1,1)"><path fill="none" stroke="#000000" d="M 192 62 L 816 62 L 816 848 L 192 848 L 192 62 Z Z" stroke-miterlimit="10"/></g><g transform="translate(-62,-38) scale(1,1)"><g><path fill="none" stroke="none"/><text fill="#000000" stroke="none" font-family="Arial" font-size="13px" font-style="normal" font-weight="bold" text-decoration="none" x="489.91455078125" y="82.5">SAM</text></g></g><g transform="translate(-62,-38) scale(1,1)"><rect fill="#C0C0C0" stroke="none" x="559" y="495" width="99.20000000000005" height="15" opacity="0.2"/></g><g transform="translate(-62,-38) scale(1,1)"><rect fill="#C0C0C0" stroke="none" x="559" y="509" width="248" height="330" opacity="0.2"/></g><g transform="translate(-62,-38) scale(1,1)"><rect fill="#ffffff" stroke="none" x="552" y="503" width="248" height="329"/></g><g transform="translate(-62,-38) scale(1,1)"><path fill="none" stroke="#000000" d="M 552 503 L 800 503 L 800 832 L 552 832 L 552 503 Z Z" stroke-miterlimit="10"/></g><g transform="translate(-62,-38) scale(1,1)"><rect fill="#ffffff" stroke="none" x="552" y="488" width="99.20000000000005" height="15"/></g><g transform="translate(-62,-38) scale(1,1)"><path fill="none" stroke="#000000" d="M 552 488 L 651.2 488 L 651.2 503 L 552 503 L 552 488 Z Z" stroke-miterlimit="10"/></g><g transform="translate(-62,-38) scale(1,1)"><rect fill="#ffffff" stroke="none" x="552" y="502" width="248" height="330"/></g><g transform="translate(-62,-38) scale(1,1)"><path fill="none" stroke="#000000" d="M 552 502 L 800 502 L 800 832 L 552 832 L 552 502 Z Z" stroke-miterlimit="10"/></g><g transform="translate(-62,-38) scale(1,1)"><path fill="none" stroke="#000000" d="M 643.2 491 L 643.2 495" stroke-miterlimit="10"/></g><g transform="translate(-62,-38) scale(1,1)"><path fill="none" stroke="#000000" d="M 640.2 499 L 640.2 495 L 646.2 495" stroke-miterlimit="10"/></g><g transform="translate(-62,-38) scale(1,1)"><path fill="none" stroke="#000000" d="M 646.2 499 L 646.2 495 L 640.2 495" stroke-miterlimit="10"/></g><g transform="translate(-62,-38) scale(1,1)"><g><path fill="none" stroke="none"/><text fill="#000000" stroke="none" font-family="Arial" font-size="13px" font-style="normal" font-weight="bold" text-decoration="none" x="634.09912109375" y="522.5">course system</text></g></g><g transform="translate(-62,-38) scale(1,1)"><rect fill="#C0C0C0" stroke="none" x="559" y="103" width="99.20000000000005" height="15" opacity="0.2"/></g><g transform="translate(-62,-38) scale(1,1)"><rect fill="#C0C0C0" stroke="none" x="559" y="117" width="248" height="338" opacity="0.2"/></g><g transform="translate(-62,-38) scale(1,1)"><rect fill="#ffffff" stroke="none" x="552" y="111" width="248" height="337"/></g><g transform="translate(-62,-38) scale(1,1)"><path fill="none" stroke="#000000" d="M 552 111 L 800 111 L 800 448 L 552 448 L 552 111 Z Z" stroke-miterlimit="10"/></g><g transform="translate(-62,-38) scale(1,1)"><rect fill="#ffffff" stroke="none" x="552" y="96" width="99.20000000000005" height="15"/></g><g transform="translate(-62,-38) scale(1,1)"><path fill="none" stroke="#000000" d="M 552 96 L 651.2 96 L 651.2 111 L 552 111 L 552 96 Z Z" stroke-miterlimit="10"/></g><g transform="translate(-62,-38) scale(1,1)"><rect fill="#ffffff" stroke="none" x="552" y="110" width="248" height="338"/></g><g transform="translate(-62,-38) scale(1,1)"><path fill="none" stroke="#000000" d="M 552 110 L 800 110 L 800 448 L 552 448 L 552 110 Z Z" stroke-miterlimit="10"/></g><g transform="translate(-62,-38) scale(1,1)"><path fill="none" stroke="#000000" d="M 643.2 99 L 643.2 103" stroke-miterlimit="10"/></g><g transform="translate(-62,-38) scale(1,1)"><path fill="none" stroke="#000000" d="M 640.2 107 L 640.2 103 L 646.2 103" stroke-miterlimit="10"/></g><g transform="translate(-62,-38) scale(1,1)"><path fill="none" stroke="#000000" d="M 646.2 107 L 646.2 103 L 640.2 103" stroke-miterlimit="10"/></g><g transform="translate(-62,-38) scale(1,1)"><g><path fill="none" stroke="none"/><text fill="#000000" stroke="none" font-family="Arial" font-size="13px" font-style="normal" font-weight="bold" text-decoration="none" x="640.964111328125" y="130.5">user system</text></g></g><g transform="translate(-62,-38) scale(1,1)"><path fill="#ffffff" stroke="none" d="M 92.58836363636364 372.57 C 92.58836363636364 366.180064864 97.69752669323637 361 104 361 C 110.30247330676363 361 115.41163636363636 366.180064864 115.41163636363636 372.57 C 115.41163636363636 378.959935136 110.30247330676363 384.14 104 384.14 C 97.69752669323637 384.14 92.58836363636364 378.959935136 92.58836363636364 372.57 Z"/></g><g transform="translate(-62,-38) scale(1,1)"><path fill="none" stroke="#000000" d="M 92.58836363636364 372.57 C 92.58836363636364 366.180064864 97.69752669323637 361 104 361 C 110.30247330676363 361 115.41163636363636 366.180064864 115.41163636363636 372.57 C 115.41163636363636 378.959935136 110.30247330676363 384.14 104 384.14 C 97.69752669323637 384.14 92.58836363636364 378.959935136 92.58836363636364 372.57 Z" stroke-miterlimit="10"/></g><g transform="translate(-62,-38) scale(1,1)"><path fill="none" stroke="#000000" d="M 104 384.14 L 104 406.86" stroke-miterlimit="10"/></g><g transform="translate(-62,-38) scale(1,1)"><path fill="none" stroke="#000000" d="M 91.91709090909092 392.65999999999997 L 116.08290909090908 392.65999999999997" stroke-miterlimit="10"/></g><g transform="translate(-62,-38) scale(1,1)"><path fill="none" stroke="#000000" d="M 104 406.86 L 87.21818181818182 430" stroke-miterlimit="10"/></g><g transform="translate(-62,-38) scale(1,1)"><path fill="none" stroke="#000000" d="M 104 406.86 L 120.78181818181818 430" stroke-miterlimit="10"/></g><g transform="translate(-62,-38) scale(1,1)"><g><path fill="none" stroke="none"/><text fill="#000000" stroke="none" font-family="Arial" font-size="13px" font-style="normal" font-weight="bold" text-decoration="none" x="90.2763671875" y="450.5">User</text></g></g><g transform="translate(-62,-38) scale(1,1)"><path fill="#ffffff" stroke="none" d="M 940.5883636363636 348.57 C 940.5883636363636 342.180064864 945.6975266932363 337 952 337 C 958.3024733067637 337 963.4116363636364 342.180064864 963.4116363636364 348.57 C 963.4116363636364 354.959935136 958.3024733067637 360.14 952 360.14 C 945.6975266932363 360.14 940.5883636363636 354.959935136 940.5883636363636 348.57 Z"/></g><g transform="translate(-62,-38) scale(1,1)"><path fill="none" stroke="#000000" d="M 940.5883636363636 348.57 C 940.5883636363636 342.180064864 945.6975266932363 337 952 337 C 958.3024733067637 337 963.4116363636364 342.180064864 963.4116363636364 348.57 C 963.4116363636364 354.959935136 958.3024733067637 360.14 952 360.14 C 945.6975266932363 360.14 940.5883636363636 354.959935136 940.5883636363636 348.57 Z" stroke-miterlimit="10"/></g><g transform="translate(-62,-38) scale(1,1)"><path fill="none" stroke="#000000" d="M 952 360.14 L 952 382.86" stroke-miterlimit="10"/></g><g transform="translate(-62,-38) scale(1,1)"><path fill="none" stroke="#000000" d="M 939.9170909090909 368.65999999999997 L 964.0829090909091 368.65999999999997" stroke-miterlimit="10"/></g><g transform="translate(-62,-38) scale(1,1)"><path fill="none" stroke="#000000" d="M 952 382.86 L 935.2181818181818 406" stroke-miterlimit="10"/></g><g transform="translate(-62,-38) scale(1,1)"><path fill="none" stroke="#000000" d="M 952 382.86 L 968.7818181818182 406" stroke-miterlimit="10"/></g><g transform="translate(-62,-38) scale(1,1)"><g><path fill="none" stroke="none"/><text fill="#000000" stroke="none" font-family="Arial" font-size="13px" font-style="normal" font-weight="bold" text-decoration="none" x="934.658203125" y="426.5">Guest</text></g></g><g transform="translate(-62,-38) scale(1,1)"><path fill="none" stroke="#000000" d="M 920 392 L 872 392 L 872 181 L 790 181" stroke-miterlimit="10"/></g><g transform="translate(-62,-38) scale(1,1)"><path fill="#ffffff" stroke="none" d="M 92.58836363636364 132.57 C 92.58836363636364 126.180064864 97.69752669323637 121 104 121 C 110.30247330676363 121 115.41163636363636 126.180064864 115.41163636363636 132.57 C 115.41163636363636 138.95993513599998 110.30247330676363 144.14 104 144.14 C 97.69752669323637 144.14 92.58836363636364 138.95993513599998 92.58836363636364 132.57 Z"/></g><g transform="translate(-62,-38) scale(1,1)"><path fill="none" stroke="#000000" d="M 92.58836363636364 132.57 C 92.58836363636364 126.180064864 97.69752669323637 121 104 121 C 110.30247330676363 121 115.41163636363636 126.180064864 115.41163636363636 132.57 C 115.41163636363636 138.95993513599998 110.30247330676363 144.14 104 144.14 C 97.69752669323637 144.14 92.58836363636364 138.95993513599998 92.58836363636364 132.57 Z" stroke-miterlimit="10"/></g><g transform="translate(-62,-38) scale(1,1)"><path fill="none" stroke="#000000" d="M 104 144.14 L 104 166.86" stroke-miterlimit="10"/></g><g transform="translate(-62,-38) scale(1,1)"><path fill="none" stroke="#000000" d="M 91.91709090909092 152.66 L 116.08290909090908 152.66" stroke-miterlimit="10"/></g><g transform="translate(-62,-38) scale(1,1)"><path fill="none" stroke="#000000" d="M 104 166.86 L 87.21818181818182 190" stroke-miterlimit="10"/></g><g transform="translate(-62,-38) scale(1,1)"><path fill="none" stroke="#000000" d="M 104 166.86 L 120.78181818181818 190" stroke-miterlimit="10"/></g><g transform="translate(-62,-38) scale(1,1)"><g><path fill="none" stroke="none"/><text fill="#000000" stroke="none" font-family="Arial" font-size="13px" font-style="normal" font-weight="bold" text-decoration="none" x="85.575927734375" y="210.5">Admin</text></g></g><g transform="translate(-62,-38) scale(1,1)"><path fill="none" stroke="#000000" d="M 104 217 L 104 359" stroke-miterlimit="10"/></g><g transform="translate(-62,-38) scale(1,1)"><path fill="#FFFFFF" stroke="none" d="M 95.58096448796803 338.6746502847517 L 104 359 L 112.41903551203198 338.6746502847517"/></g><g transform="translate(-62,-38) scale(1,1)"><path fill="none" stroke="#000000" d="M 95.58096448796803 338.6746502847517 L 104 359 L 112.41903551203198 338.6746502847517 L 95.58096448796803 338.6746502847517" stroke-miterlimit="10"/></g><g transform="translate(-62,-38) scale(1,1)"><path fill="#C0C0C0" stroke="none" d="M 567 188 C 567 172.5360256 618.487248 160 682 160 C 745.512752 160 797 172.5360256 797 188 C 797 203.4639744 745.512752 216 682 216 C 618.487248 216 567 203.4639744 567 188 Z" opacity="0.2"/></g><g transform="translate(-62,-38) scale(1,1)"><path fill="#00a9ff" stroke="none" d="M 560 181 C 560 165.5360256 611.487248 153 675 153 C 738.512752 153 790 165.5360256 790 181 C 790 196.4639744 738.512752 209 675 209 C 611.487248 209 560 196.4639744 560 181 Z"/></g><g transform="translate(-62,-38) scale(1,1)"><path fill="none" stroke="#000000" d="M 560 181 C 560 165.5360256 611.487248 153 675 153 C 738.512752 153 790 165.5360256 790 181 C 790 196.4639744 738.512752 209 675 209 C 611.487248 209 560 196.4639744 560 181 Z" stroke-miterlimit="10"/></g><g transform="translate(-62,-38) scale(1,1)"><g><path fill="none" stroke="none"/><text fill="#000000" stroke="none" font-family="Arial" font-size="13px" font-style="normal" font-weight="bold" text-decoration="none" x="653.325927734375" y="188">register</text></g></g><g transform="translate(-62,-38) scale(1,1)"><path fill="#C0C0C0" stroke="none" d="M 567 252 C 567 236.5360256 618.487248 224 682 224 C 745.512752 224 797 236.5360256 797 252 C 797 267.4639744 745.512752 280 682 280 C 618.487248 280 567 267.4639744 567 252 Z" opacity="0.2"/></g><g transform="translate(-62,-38) scale(1,1)"><path fill="#00a9ff" stroke="none" d="M 560 245 C 560 229.5360256 611.487248 217 675 217 C 738.512752 217 790 229.5360256 790 245 C 790 260.4639744 738.512752 273 675 273 C 611.487248 273 560 260.4639744 560 245 Z"/></g><g transform="translate(-62,-38) scale(1,1)"><path fill="none" stroke="#000000" d="M 560 245 C 560 229.5360256 611.487248 217 675 217 C 738.512752 217 790 229.5360256 790 245 C 790 260.4639744 738.512752 273 675 273 C 611.487248 273 560 260.4639744 560 245 Z" stroke-miterlimit="10"/></g><g transform="translate(-62,-38) scale(1,1)"><g><path fill="none" stroke="none"/><text fill="#000000" stroke="none" font-family="Arial" font-size="13px" font-style="normal" font-weight="bold" text-decoration="none" x="659.4609375" y="252">log in</text></g></g><g transform="translate(-62,-38) scale(1,1)"><path fill="#C0C0C0" stroke="none" d="M 567 316 C 567 300.5360256 618.487248 288 682 288 C 745.512752 288 797 300.5360256 797 316 C 797 331.4639744 745.512752 344 682 344 C 618.487248 344 567 331.4639744 567 316 Z" opacity="0.2"/></g><g transform="translate(-62,-38) scale(1,1)"><path fill="#00a9ff" stroke="none" d="M 560 309 C 560 293.5360256 611.487248 281 675 281 C 738.512752 281 790 293.5360256 790 309 C 790 324.4639744 738.512752 337 675 337 C 611.487248 337 560 324.4639744 560 309 Z"/></g><g transform="translate(-62,-38) scale(1,1)"><path fill="none" stroke="#000000" d="M 560 309 C 560 293.5360256 611.487248 281 675 281 C 738.512752 281 790 293.5360256 790 309 C 790 324.4639744 738.512752 337 675 337 C 611.487248 337 560 324.4639744 560 309 Z" stroke-miterlimit="10"/></g><g transform="translate(-62,-38) scale(1,1)"><g><path fill="none" stroke="none"/><text fill="#000000" stroke="none" font-family="Arial" font-size="13px" font-style="normal" font-weight="bold" text-decoration="none" x="655.484130859375" y="316">log out</text></g></g><g transform="translate(-62,-38) scale(1,1)"><path fill="#C0C0C0" stroke="none" d="M 567 412 C 567 396.5360256 618.487248 384 682 384 C 745.512752 384 797 396.5360256 797 412 C 797 427.4639744 745.512752 440 682 440 C 618.487248 440 567 427.4639744 567 412 Z" opacity="0.2"/></g><g transform="translate(-62,-38) scale(1,1)"><path fill="#00a9ff" stroke="none" d="M 560 405 C 560 389.5360256 611.487248 377 675 377 C 738.512752 377 790 389.5360256 790 405 C 790 420.4639744 738.512752 433 675 433 C 611.487248 433 560 420.4639744 560 405 Z"/></g><g transform="translate(-62,-38) scale(1,1)"><path fill="none" stroke="#000000" d="M 560 405 C 560 389.5360256 611.487248 377 675 377 C 738.512752 377 790 389.5360256 790 405 C 790 420.4639744 738.512752 433 675 433 C 611.487248 433 560 420.4639744 560 405 Z" stroke-miterlimit="10"/></g><g transform="translate(-62,-38) scale(1,1)"><g><path fill="none" stroke="none"/><text fill="#000000" stroke="none" font-family="Arial" font-size="13px" font-style="normal" font-weight="bold" text-decoration="none" x="626.938720703125" y="412">manage account</text></g></g><g transform="translate(-62,-38) scale(1,1)"><path fill="#C0C0C0" stroke="none" d="M 567 571 C 567 555.5360256 618.487248 543 682 543 C 745.512752 543 797 555.5360256 797 571 C 797 586.4639744 745.512752 599 682 599 C 618.487248 599 567 586.4639744 567 571 Z" opacity="0.2"/></g><g transform="translate(-62,-38) scale(1,1)"><path fill="#00a9ff" stroke="none" d="M 560 564 C 560 548.5360256 611.487248 536 675 536 C 738.512752 536 790 548.5360256 790 564 C 790 579.4639744 738.512752 592 675 592 C 611.487248 592 560 579.4639744 560 564 Z"/></g><g transform="translate(-62,-38) scale(1,1)"><path fill="none" stroke="#000000" d="M 560 564 C 560 548.5360256 611.487248 536 675 536 C 738.512752 536 790 548.5360256 790 564 C 790 579.4639744 738.512752 592 675 592 C 611.487248 592 560 579.4639744 560 564 Z" stroke-miterlimit="10"/></g><g transform="translate(-62,-38) scale(1,1)"><g><path fill="none" stroke="none"/><text fill="#000000" stroke="none" font-family="Arial" font-size="13px" font-style="normal" font-weight="bold" text-decoration="none" x="603.4619140625" y="571">search available courses</text></g></g><g transform="translate(-62,-38) scale(1,1)"><path fill="#C0C0C0" stroke="none" d="M 567 643 C 567 627.5360256 618.487248 615 682 615 C 745.512752 615 797 627.5360256 797 643 C 797 658.4639744 745.512752 671 682 671 C 618.487248 671 567 658.4639744 567 643 Z" opacity="0.2"/></g><g transform="translate(-62,-38) scale(1,1)"><path fill="#00a9ff" stroke="none" d="M 560 636 C 560 620.5360256 611.487248 608 675 608 C 738.512752 608 790 620.5360256 790 636 C 790 651.4639744 738.512752 664 675 664 C 611.487248 664 560 651.4639744 560 636 Z"/></g><g transform="translate(-62,-38) scale(1,1)"><path fill="none" stroke="#000000" d="M 560 636 C 560 620.5360256 611.487248 608 675 608 C 738.512752 608 790 620.5360256 790 636 C 790 651.4639744 738.512752 664 675 664 C 611.487248 664 560 651.4639744 560 636 Z" stroke-miterlimit="10"/></g><g transform="translate(-62,-38) scale(1,1)"><g><path fill="none" stroke="none"/><text fill="#000000" stroke="none" font-family="Arial" font-size="13px" font-style="normal" font-weight="bold" text-decoration="none" x="639.589599609375" y="643">book course</text></g></g><g transform="translate(-62,-38) scale(1,1)"><path fill="#C0C0C0" stroke="none" d="M 567 715 C 567 699.5360256 618.487248 687 682 687 C 745.512752 687 797 699.5360256 797 715 C 797 730.4639744 745.512752 743 682 743 C 618.487248 743 567 730.4639744 567 715 Z" opacity="0.2"/></g><g transform="translate(-62,-38) scale(1,1)"><path fill="#00a9ff" stroke="none" d="M 560 708 C 560 692.5360256 611.487248 680 675 680 C 738.512752 680 790 692.5360256 790 708 C 790 723.4639744 738.512752 736 675 736 C 611.487248 736 560 723.4639744 560 708 Z"/></g><g transform="translate(-62,-38) scale(1,1)"><path fill="none" stroke="#000000" d="M 560 708 C 560 692.5360256 611.487248 680 675 680 C 738.512752 680 790 692.5360256 790 708 C 790 723.4639744 738.512752 736 675 736 C 611.487248 736 560 723.4639744 560 708 Z" stroke-miterlimit="10"/></g><g transform="translate(-62,-38) scale(1,1)"><g><path fill="none" stroke="none"/><text fill="#000000" stroke="none" font-family="Arial" font-size="13px" font-style="normal" font-weight="bold" text-decoration="none" x="640.67822265625" y="715">offer course</text></g></g><g transform="translate(-62,-38) scale(1,1)"><path fill="#C0C0C0" stroke="none" d="M 567 787 C 567 771.5360256 618.487248 759 682 759 C 745.512752 759 797 771.5360256 797 787 C 797 802.4639744 745.512752 815 682 815 C 618.487248 815 567 802.4639744 567 787 Z" opacity="0.2"/></g><g transform="translate(-62,-38) scale(1,1)"><path fill="#ffffff" stroke="none" d="M 560 780 C 560 764.5360256 611.487248 752 675 752 C 738.512752 752 790 764.5360256 790 780 C 790 795.4639744 738.512752 808 675 808 C 611.487248 808 560 795.4639744 560 780 Z"/></g><g transform="translate(-62,-38) scale(1,1)"><path fill="none" stroke="#000000" d="M 560 780 C 560 764.5360256 611.487248 752 675 752 C 738.512752 752 790 764.5360256 790 780 C 790 795.4639744 738.512752 808 675 808 C 611.487248 808 560 795.4639744 560 780 Z" stroke-miterlimit="10"/></g><g transform="translate(-62,-38) scale(1,1)"><g><path fill="none" stroke="none"/><text fill="#000000" stroke="none" font-family="Arial" font-size="13px" font-style="normal" font-weight="bold" text-decoration="none" x="642.484130859375" y="787">rate course</text></g></g><g transform="translate(-62,-38) scale(1,1)"><path fill="none" stroke="#000000" d="M 920 392 L 872 392 L 872 568 L 790 568" stroke-miterlimit="10"/></g><g transform="translate(-62,-38) scale(1,1)"><rect fill="#C0C0C0" stroke="none" x="215" y="423" width="99.19999999999999" height="15" opacity="0.2"/></g><g transform="translate(-62,-38) scale(1,1)"><rect fill="#C0C0C0" stroke="none" x="215" y="437" width="248" height="402" opacity="0.2"/></g><g transform="translate(-62,-38) scale(1,1)"><rect fill="#ffffff" stroke="none" x="208" y="431" width="248" height="401"/></g><g transform="translate(-62,-38) scale(1,1)"><path fill="none" stroke="#000000" d="M 208 431 L 456 431 L 456 832 L 208 832 L 208 431 Z Z" stroke-miterlimit="10"/></g><g transform="translate(-62,-38) scale(1,1)"><rect fill="#ffffff" stroke="none" x="208" y="416" width="99.19999999999999" height="15"/></g><g transform="translate(-62,-38) scale(1,1)"><path fill="none" stroke="#000000" d="M 208 416 L 307.2 416 L 307.2 431 L 208 431 L 208 416 Z Z" stroke-miterlimit="10"/></g><g transform="translate(-62,-38) scale(1,1)"><rect fill="#ffffff" stroke="none" x="208" y="430" width="248" height="402"/></g><g transform="translate(-62,-38) scale(1,1)"><path fill="none" stroke="#000000" d="M 208 430 L 456 430 L 456 832 L 208 832 L 208 430 Z Z" stroke-miterlimit="10"/></g><g transform="translate(-62,-38) scale(1,1)"><path fill="none" stroke="#000000" d="M 299.2 419 L 299.2 423" stroke-miterlimit="10"/></g><g transform="translate(-62,-38) scale(1,1)"><path fill="none" stroke="#000000" d="M 296.2 427 L 296.2 423 L 302.2 423" stroke-miterlimit="10"/></g><g transform="translate(-62,-38) scale(1,1)"><path fill="none" stroke="#000000" d="M 302.2 427 L 302.2 423 L 296.2 423" stroke-miterlimit="10"/></g><g transform="translate(-62,-38) scale(1,1)"><g><path fill="none" stroke="none"/><text fill="#000000" stroke="none" font-family="Arial" font-size="13px" font-style="normal" font-weight="bold" text-decoration="none" x="301.280517578125" y="450.5">dashboard</text></g></g><g transform="translate(-62,-38) scale(1,1)"><path fill="#C0C0C0" stroke="none" d="M 223 787 C 223 771.5360256 274.487248 759 338 759 C 401.512752 759 453 771.5360256 453 787 C 453 802.4639744 401.512752 815 338 815 C 274.487248 815 223 802.4639744 223 787 Z" opacity="0.2"/></g><g transform="translate(-62,-38) scale(1,1)"><path fill="#ffffff" stroke="none" d="M 216 780 C 216 764.5360256 267.487248 752 331 752 C 394.512752 752 446 764.5360256 446 780 C 446 795.4639744 394.512752 808 331 808 C 267.487248 808 216 795.4639744 216 780 Z"/></g><g transform="translate(-62,-38) scale(1,1)"><path fill="none" stroke="#000000" d="M 216 780 C 216 764.5360256 267.487248 752 331 752 C 394.512752 752 446 764.5360256 446 780 C 446 795.4639744 394.512752 808 331 808 C 267.487248 808 216 795.4639744 216 780 Z" stroke-miterlimit="10"/></g><g transform="translate(-62,-38) scale(1,1)"><g><path fill="none" stroke="none"/><text fill="#000000" stroke="none" font-family="Arial" font-size="13px" font-style="normal" font-weight="bold" text-decoration="none" x="292.695068359375" y="787">see schedule</text></g></g><g transform="translate(-62,-38) scale(1,1)"><path fill="#C0C0C0" stroke="none" d="M 223 715 C 223 699.5360256 274.487248 687 338 687 C 401.512752 687 453 699.5360256 453 715 C 453 730.4639744 401.512752 743 338 743 C 274.487248 743 223 730.4639744 223 715 Z" opacity="0.2"/></g><g transform="translate(-62,-38) scale(1,1)"><path fill="#ffffff" stroke="none" d="M 216 708 C 216 692.5360256 267.487248 680 331 680 C 394.512752 680 446 692.5360256 446 708 C 446 723.4639744 394.512752 736 331 736 C 267.487248 736 216 723.4639744 216 708 Z"/></g><g transform="translate(-62,-38) scale(1,1)"><path fill="none" stroke="#000000" d="M 216 708 C 216 692.5360256 267.487248 680 331 680 C 394.512752 680 446 692.5360256 446 708 C 446 723.4639744 394.512752 736 331 736 C 267.487248 736 216 723.4639744 216 708 Z" stroke-miterlimit="10"/></g><g transform="translate(-62,-38) scale(1,1)"><g><path fill="none" stroke="none"/><text fill="#000000" stroke="none" font-family="Arial" font-size="13px" font-style="normal" font-weight="bold" text-decoration="none" x="294.87548828125" y="715">see skill tree</text></g></g><g transform="translate(-62,-38) scale(1,1)"><path fill="#C0C0C0" stroke="none" d="M 223 643 C 223 627.5360256 274.487248 615 338 615 C 401.512752 615 453 627.5360256 453 643 C 453 658.4639744 401.512752 671 338 671 C 274.487248 671 223 658.4639744 223 643 Z" opacity="0.2"/></g><g transform="translate(-62,-38) scale(1,1)"><path fill="#ffffff" stroke="none" d="M 216 636 C 216 620.5360256 267.487248 608 331 608 C 394.512752 608 446 620.5360256 446 636 C 446 651.4639744 394.512752 664 331 664 C 267.487248 664 216 651.4639744 216 636 Z"/></g><g transform="translate(-62,-38) scale(1,1)"><path fill="none" stroke="#000000" d="M 216 636 C 216 620.5360256 267.487248 608 331 608 C 394.512752 608 446 620.5360256 446 636 C 446 651.4639744 394.512752 664 331 664 C 267.487248 664 216 651.4639744 216 636 Z" stroke-miterlimit="10"/></g><g transform="translate(-62,-38) scale(1,1)"><g><path fill="none" stroke="none"/><text fill="#000000" stroke="none" font-family="Arial" font-size="13px" font-style="normal" font-weight="bold" text-decoration="none" x="271.38916015625" y="643">check course ratings</text></g></g><g transform="translate(-62,-38) scale(1,1)"><path fill="none" stroke="#000000" d="M 446 776 L 560 776" stroke-miterlimit="10"/></g><g transform="translate(-62,-38) scale(1,1)"><path fill="none" stroke="#000000" d="M 549.8373251423759 780.209517756016 L 560 776 L 549.8373251423758 771.790482243984" stroke-miterlimit="10"/></g><g transform="translate(-62,-38) scale(1,1)"><path fill="none" stroke="#000000" d="M 136 368 L 168 368 L 168 440 L 208 440" stroke-miterlimit="10"/></g><g transform="translate(-62,-38) scale(1,1)"><path fill="#C0C0C0" stroke="none" d="M 223 571 C 223 555.5360256 274.487248 543 338 543 C 401.512752 543 453 555.5360256 453 571 C 453 586.4639744 401.512752 599 338 599 C 274.487248 599 223 586.4639744 223 571 Z" opacity="0.2"/></g><g transform="translate(-62,-38) scale(1,1)"><path fill="#ffffff" stroke="none" d="M 216 564 C 216 548.5360256 267.487248 536 331 536 C 394.512752 536 446 548.5360256 446 564 C 446 579.4639744 394.512752 592 331 592 C 267.487248 592 216 579.4639744 216 564 Z"/></g><g transform="translate(-62,-38) scale(1,1)"><path fill="none" stroke="#000000" d="M 216 564 C 216 548.5360256 267.487248 536 331 536 C 394.512752 536 446 548.5360256 446 564 C 446 579.4639744 394.512752 592 331 592 C 267.487248 592 216 579.4639744 216 564 Z" stroke-miterlimit="10"/></g><g transform="translate(-62,-38) scale(1,1)"><g><path fill="none" stroke="none"/><text fill="#000000" stroke="none" font-family="Arial" font-size="13px" font-style="normal" font-weight="bold" text-decoration="none" x="268.869140625" y="571">see recomm. courses</text></g></g><g transform="translate(-62,-38) scale(1,1)"><rect fill="#C0C0C0" stroke="none" x="215" y="95" width="99.19999999999999" height="15" opacity="0.2"/></g><g transform="translate(-62,-38) scale(1,1)"><rect fill="#C0C0C0" stroke="none" x="215" y="109" width="248" height="178" opacity="0.2"/></g><g transform="translate(-62,-38) scale(1,1)"><rect fill="#ffffff" stroke="none" x="208" y="103" width="248" height="177"/></g><g transform="translate(-62,-38) scale(1,1)"><path fill="none" stroke="#000000" d="M 208 103 L 456 103 L 456 280 L 208 280 L 208 103 Z Z" stroke-miterlimit="10"/></g><g transform="translate(-62,-38) scale(1,1)"><rect fill="#ffffff" stroke="none" x="208" y="88" width="99.19999999999999" height="15"/></g><g transform="translate(-62,-38) scale(1,1)"><path fill="none" stroke="#000000" d="M 208 88 L 307.2 88 L 307.2 103 L 208 103 L 208 88 Z Z" stroke-miterlimit="10"/></g><g transform="translate(-62,-38) scale(1,1)"><rect fill="#ffffff" stroke="none" x="208" y="102" width="248" height="178"/></g><g transform="translate(-62,-38) scale(1,1)"><path fill="none" stroke="#000000" d="M 208 102 L 456 102 L 456 280 L 208 280 L 208 102 Z Z" stroke-miterlimit="10"/></g><g transform="translate(-62,-38) scale(1,1)"><path fill="none" stroke="#000000" d="M 299.2 91 L 299.2 95" stroke-miterlimit="10"/></g><g transform="translate(-62,-38) scale(1,1)"><path fill="none" stroke="#000000" d="M 296.2 99 L 296.2 95 L 302.2 95" stroke-miterlimit="10"/></g><g transform="translate(-62,-38) scale(1,1)"><path fill="none" stroke="#000000" d="M 302.2 99 L 302.2 95 L 296.2 95" stroke-miterlimit="10"/></g><g transform="translate(-62,-38) scale(1,1)"><g><path fill="none" stroke="none"/><text fill="#000000" stroke="none" font-family="Arial" font-size="13px" font-style="normal" font-weight="bold" text-decoration="none" x="290.08642578125" y="122.5">admin console</text></g></g><g transform="translate(-62,-38) scale(1,1)"><path fill="#C0C0C0" stroke="none" d="M 223 243 C 223 227.5360256 274.487248 215 338 215 C 401.512752 215 453 227.5360256 453 243 C 453 258.4639744 401.512752 271 338 271 C 274.487248 271 223 258.4639744 223 243 Z" opacity="0.2"/></g><g transform="translate(-62,-38) scale(1,1)"><path fill="#ffffff" stroke="none" d="M 216 236 C 216 220.5360256 267.487248 208 331 208 C 394.512752 208 446 220.5360256 446 236 C 446 251.4639744 394.512752 264 331 264 C 267.487248 264 216 251.4639744 216 236 Z"/></g><g transform="translate(-62,-38) scale(1,1)"><path fill="none" stroke="#000000" d="M 216 236 C 216 220.5360256 267.487248 208 331 208 C 394.512752 208 446 220.5360256 446 236 C 446 251.4639744 394.512752 264 331 264 C 267.487248 264 216 251.4639744 216 236 Z" stroke-miterlimit="10"/></g><g transform="translate(-62,-38) scale(1,1)"><g><path fill="none" stroke="none"/><text fill="#000000" stroke="none" font-family="Arial" font-size="13px" font-style="normal" font-weight="bold" text-decoration="none" x="285.839599609375" y="243">moderate users</text></g></g><g transform="translate(-62,-38) scale(1,1)"><path fill="#C0C0C0" stroke="none" d="M 223 172 C 223 156.5360256 274.487248 144 338 144 C 401.512752 144 453 156.5360256 453 172 C 453 187.4639744 401.512752 200 338 200 C 274.487248 200 223 187.4639744 223 172 Z" opacity="0.2"/></g><g transform="translate(-62,-38) scale(1,1)"><path fill="#ffffff" stroke="none" d="M 216 165 C 216 149.5360256 267.487248 137 331 137 C 394.512752 137 446 149.5360256 446 165 C 446 180.4639744 394.512752 193 331 193 C 267.487248 193 216 180.4639744 216 165 Z"/></g><g transform="translate(-62,-38) scale(1,1)"><path fill="none" stroke="#000000" d="M 216 165 C 216 149.5360256 267.487248 137 331 137 C 394.512752 137 446 149.5360256 446 165 C 446 180.4639744 394.512752 193 331 193 C 267.487248 193 216 180.4639744 216 165 Z" stroke-miterlimit="10"/></g><g transform="translate(-62,-38) scale(1,1)"><g><path fill="none" stroke="none"/><text fill="#000000" stroke="none" font-family="Arial" font-size="13px" font-style="normal" font-weight="bold" text-decoration="none" x="278.974609375" y="172">moderate courses</text></g></g><g transform="translate(-62,-38) scale(1,1)"><path fill="none" stroke="#000000" d="M 136 368 L 504 368 L 504 240 L 560 240" stroke-miterlimit="10"/></g><g transform="translate(-62,-38) scale(1,1)"><path fill="none" stroke="#000000" d="M 136 368 L 504 368 L 504 304 L 560 304" stroke-miterlimit="10"/></g><g transform="translate(-62,-38) scale(1,1)"><path fill="none" stroke="#000000" d="M 136 368 L 504 368 L 504 408 L 560 408" stroke-miterlimit="10"/></g><g transform="translate(-62,-38) scale(1,1)"><path fill="none" stroke="#000000" d="M 136 368 L 504 368 L 504 512 L 552 512" stroke-miterlimit="10"/></g><g transform="translate(-62,-38) scale(1,1)"><path fill="none" stroke="#000000" d="M 136 160 L 168 160 L 168 112 L 208 112" stroke-miterlimit="10"/></g><g transform="translate(-62,-38) scale(1,1)"><path fill="#C0C0C0" stroke="none" d="M 223 499 C 223 483.5360256 274.487248 471 338 471 C 401.512752 471 453 483.5360256 453 499 C 453 514.4639744 401.512752 527 338 527 C 274.487248 527 223 514.4639744 223 499 Z" opacity="0.2"/></g><g transform="translate(-62,-38) scale(1,1)"><path fill="#ffffff" stroke="none" d="M 216 492 C 216 476.5360256 267.487248 464 331 464 C 394.512752 464 446 476.5360256 446 492 C 446 507.4639744 394.512752 520 331 520 C 267.487248 520 216 507.4639744 216 492 Z"/></g><g transform="translate(-62,-38) scale(1,1)"><path fill="none" stroke="#000000" d="M 216 492 C 216 476.5360256 267.487248 464 331 464 C 394.512752 464 446 476.5360256 446 492 C 446 507.4639744 394.512752 520 331 520 C 267.487248 520 216 507.4639744 216 492 Z" stroke-miterlimit="10"/></g><g transform="translate(-62,-38) scale(1,1)"><g><path fill="none" stroke="none"/><text fill="#000000" stroke="none" font-family="Arial" font-size="13px" font-style="normal" font-weight="bold" text-decoration="none" x="272.1064453125" y="499">see available credits</text></g></g></g></svg>