<svg version="1.1" xmlns="http://www.w3.org/2000/svg" xmlns:xlink="http://www.w3.org/1999/xlink" width="1420" height="868"><defs/><g><g transform="translate(10,10) scale(1,1)"><rect fill="#e2e2e2" stroke="none" x="1152" y="664" width="248" height="184"/></g><g transform="translate(10,10) scale(1,1)"><path fill="none" stroke="#000000" d="M 1152 664 L 1400 664 L 1400 848 L 1152 848 L 1152 664 Z Z" stroke-miterlimit="10"/></g><g transform="translate(10,10) scale(1,1)"><rect fill="#C0C0C0" stroke="none" x="471" y="55" width="249.60000000000002" height="15" opacity="0.2"/></g><g transform="translate(10,10) scale(1,1)"><rect fill="#C0C0C0" stroke="none" x="471" y="69" width="624" height="786" opacity="0.2"/></g><g transform="translate(10,10) scale(1,1)"><rect fill="#ffffff" stroke="none" x="464" y="63" width="624" height="785"/></g><g transform="translate(10,10) scale(1,1)"><path fill="none" stroke="#000000" d="M 464 63 L 1088 63 L 1088 848 L 464 848 L 464 63 Z Z" stroke-miterlimit="10"/></g><g transform="translate(10,10) scale(1,1)"><rect fill="#ffffff" stroke="none" x="464" y="48" width="249.60000000000002" height="15"/></g><g transform="translate(10,10) scale(1,1)"><path fill="none" stroke="#000000" d="M 464 48 L 713.6 48 L 713.6 63 L 464 63 L 464 48 Z Z" stroke-miterlimit="10"/></g><g transform="translate(10,10) scale(1,1)"><rect fill="#ffffff" stroke="none" x="464" y="62" width="624" height="786"/></g><g transform="translate(10,10) scale(1,1)"><path fill="none" stroke="#000000" d="M 464 62 L 1088 62 L 1088 848 L 464 848 L 464 62 Z Z" stroke-miterlimit="10"/></g><g transform="translate(10,10) scale(1,1)"><g><path fill="none" stroke="none"/><text fill="#000000" stroke="none" font-family="Arial" font-size="13px" font-style="normal" font-weight="bold" text-decoration="none" x="761.91455078125" y="82.5">SAM</text></g></g><g transform="translate(10,10) scale(1,1)"><rect fill="#C0C0C0" stroke="none" x="831" y="495" width="99.20000000000005" height="15" opacity="0.2"/></g><g transform="translate(10,10) scale(1,1)"><rect fill="#C0C0C0" stroke="none" x="831" y="509" width="248" height="330" opacity="0.2"/></g><g transform="translate(10,10) scale(1,1)"><rect fill="#ffffff" stroke="none" x="824" y="503" width="248" height="329"/></g><g transform="translate(10,10) scale(1,1)"><path fill="none" stroke="#000000" d="M 824 503 L 1072 503 L 1072 832 L 824 832 L 824 503 Z Z" stroke-miterlimit="10"/></g><g transform="translate(10,10) scale(1,1)"><rect fill="#ffffff" stroke="none" x="824" y="488" width="99.20000000000005" height="15"/></g><g transform="translate(10,10) scale(1,1)"><path fill="none" stroke="#000000" d="M 824 488 L 923.2 488 L 923.2 503 L 824 503 L 824 488 Z Z" stroke-miterlimit="10"/></g><g transform="translate(10,10) scale(1,1)"><rect fill="#ffffff" stroke="none" x="824" y="502" width="248" height="330"/></g><g transform="translate(10,10) scale(1,1)"><path fill="none" stroke="#000000" d="M 824 502 L 1072 502 L 1072 832 L 824 832 L 824 502 Z Z" stroke-miterlimit="10"/></g><g transform="translate(10,10) scale(1,1)"><path fill="none" stroke="#000000" d="M 915.2 491 L 915.2 495" stroke-miterlimit="10"/></g><g transform="translate(10,10) scale(1,1)"><path fill="none" stroke="#000000" d="M 912.2 499 L 912.2 495 L 918.2 495" stroke-miterlimit="10"/></g><g transform="translate(10,10) scale(1,1)"><path fill="none" stroke="#000000" d="M 918.2 499 L 918.2 495 L 912.2 495" stroke-miterlimit="10"/></g><g transform="translate(10,10) scale(1,1)"><g><path fill="none" stroke="none"/><text fill="#000000" stroke="none" font-family="Arial" font-size="13px" font-style="normal" font-weight="bold" text-decoration="none" x="906.09912109375" y="522.5">course system</text></g></g><g transform="translate(10,10) scale(1,1)"><rect fill="#C0C0C0" stroke="none" x="831" y="103" width="99.20000000000005" height="15" opacity="0.2"/></g><g transform="translate(10,10) scale(1,1)"><rect fill="#C0C0C0" stroke="none" x="831" y="117" width="248" height="338" opacity="0.2"/></g><g transform="translate(10,10) scale(1,1)"><rect fill="#ffffff" stroke="none" x="824" y="111" width="248" height="337"/></g><g transform="translate(10,10) scale(1,1)"><path fill="none" stroke="#000000" d="M 824 111 L 1072 111 L 1072 448 L 824 448 L 824 111 Z Z" stroke-miterlimit="10"/></g><g transform="translate(10,10) scale(1,1)"><rect fill="#ffffff" stroke="none" x="824" y="96" width="99.20000000000005" height="15"/></g><g transform="translate(10,10) scale(1,1)"><path fill="none" stroke="#000000" d="M 824 96 L 923.2 96 L 923.2 111 L 824 111 L 824 96 Z Z" stroke-miterlimit="10"/></g><g transform="translate(10,10) scale(1,1)"><rect fill="#ffffff" stroke="none" x="824" y="110" width="248" height="338"/></g><g transform="translate(10,10) scale(1,1)"><path fill="none" stroke="#000000" d="M 824 110 L 1072 110 L 1072 448 L 824 448 L 824 110 Z Z" stroke-miterlimit="10"/></g><g transform="translate(10,10) scale(1,1)"><path fill="none" stroke="#000000" d="M 915.2 99 L 915.2 103" stroke-miterlimit="10"/></g><g transform="translate(10,10) scale(1,1)"><path fill="none" stroke="#000000" d="M 912.2 107 L 912.2 103 L 918.2 103" stroke-miterlimit="10"/></g><g transform="translate(10,10) scale(1,1)"><path fill="none" stroke="#000000" d="M 918.2 107 L 918.2 103 L 912.2 103" stroke-miterlimit="10"/></g><g transform="translate(10,10) scale(1,1)"><g><path fill="none" stroke="none"/><text fill="#000000" stroke="none" font-family="Arial" font-size="13px" font-style="normal" font-weight="bold" text-decoration="none" x="912.964111328125" y="130.5">user system</text></g></g><g transform="translate(10,10) scale(1,1)"><path fill="#ffffff" stroke="none" d="M 368.3974456676137 372.57 C 368.3974456676137 366.180064864 373.5066087244864 361 379.80908203125 361 C 386.1115553380136 361 391.2207183948863 366.180064864 391.2207183948863 372.57 C 391.2207183948863 378.959935136 386.1115553380136 384.14 379.80908203125 384.14 C 373.5066087244864 384.14 368.3974456676137 378.959935136 368.3974456676137 372.57 Z"/></g><g transform="translate(10,10) scale(1,1)"><path fill="none" stroke="#000000" d="M 368.3974456676137 372.57 C 368.3974456676137 366.180064864 373.5066087244864 361 379.80908203125 361 C 386.1115553380136 361 391.2207183948863 366.180064864 391.2207183948863 372.57 C 391.2207183948863 378.959935136 386.1115553380136 384.14 379.80908203125 384.14 C 373.5066087244864 384.14 368.3974456676137 378.959935136 368.3974456676137 372.57 Z" stroke-miterlimit="10"/></g><g transform="translate(10,10) scale(1,1)"><path fill="none" stroke="#000000" d="M 379.80908203125 384.14 L 379.80908203125 406.86" stroke-miterlimit="10"/></g><g transform="translate(10,10) scale(1,1)"><path fill="none" stroke="#000000" d="M 367.7261729403409 392.65999999999997 L 391.8919911221591 392.65999999999997" stroke-miterlimit="10"/></g><g transform="translate(10,10) scale(1,1)"><path fill="none" stroke="#000000" d="M 379.80908203125 406.86 L 363.02726384943185 430" stroke-miterlimit="10"/></g><g transform="translate(10,10) scale(1,1)"><path fill="none" stroke="#000000" d="M 379.80908203125 406.86 L 396.59090021306815 430" stroke-miterlimit="10"/></g><g transform="translate(10,10) scale(1,1)"><g><path fill="none" stroke="none"/><text fill="#000000" stroke="none" font-family="Arial" font-size="13px" font-style="normal" font-weight="bold" text-decoration="none" x="335.724609375" y="450.5">Logged in User</text></g></g><g transform="translate(10,10) scale(1,1)"><path fill="#ffffff" stroke="none" d="M 1212.5883636363637 348.57 C 1212.5883636363637 342.180064864 1217.6975266932363 337 1224 337 C 1230.3024733067637 337 1235.4116363636363 342.180064864 1235.4116363636363 348.57 C 1235.4116363636363 354.959935136 1230.3024733067637 360.14 1224 360.14 C 1217.6975266932363 360.14 1212.5883636363637 354.959935136 1212.5883636363637 348.57 Z"/></g><g transform="translate(10,10) scale(1,1)"><path fill="none" stroke="#000000" d="M 1212.5883636363637 348.57 C 1212.5883636363637 342.180064864 1217.6975266932363 337 1224 337 C 1230.3024733067637 337 1235.4116363636363 342.180064864 1235.4116363636363 348.57 C 1235.4116363636363 354.959935136 1230.3024733067637 360.14 1224 360.14 C 1217.6975266932363 360.14 1212.5883636363637 354.959935136 1212.5883636363637 348.57 Z" stroke-miterlimit="10"/></g><g transform="translate(10,10) scale(1,1)"><path fill="none" stroke="#000000" d="M 1224 360.14 L 1224 382.86" stroke-miterlimit="10"/></g><g transform="translate(10,10) scale(1,1)"><path fill="none" stroke="#000000" d="M 1211.917090909091 368.65999999999997 L 1236.082909090909 368.65999999999997" stroke-miterlimit="10"/></g><g transform="translate(10,10) scale(1,1)"><path fill="none" stroke="#000000" d="M 1224 382.86 L 1207.2181818181818 406" stroke-miterlimit="10"/></g><g transform="translate(10,10) scale(1,1)"><path fill="none" stroke="#000000" d="M 1224 382.86 L 1240.7818181818182 406" stroke-miterlimit="10"/></g><g transform="translate(10,10) scale(1,1)"><g><path fill="none" stroke="none"/><text fill="#000000" stroke="none" font-family="Arial" font-size="13px" font-style="normal" font-weight="bold" text-decoration="none" x="1206.658203125" y="426.5">Guest</text></g></g><g transform="translate(10,10) scale(1,1)"><path fill="none" stroke="#000000" d="M 1192 392 L 1144 392 L 1144 181 L 1062 181" stroke-miterlimit="10"/></g><g transform="translate(10,10) scale(1,1)"><path fill="#ffffff" stroke="none" d="M 364.5883636363637 132.57 C 364.5883636363637 126.180064864 369.6975266932364 121 376 121 C 382.3024733067636 121 387.4116363636363 126.180064864 387.4116363636363 132.57 C 387.4116363636363 138.95993513599998 382.3024733067636 144.14 376 144.14 C 369.6975266932364 144.14 364.5883636363637 138.95993513599998 364.5883636363637 132.57 Z"/></g><g transform="translate(10,10) scale(1,1)"><path fill="none" stroke="#000000" d="M 364.5883636363637 132.57 C 364.5883636363637 126.180064864 369.6975266932364 121 376 121 C 382.3024733067636 121 387.4116363636363 126.180064864 387.4116363636363 132.57 C 387.4116363636363 138.95993513599998 382.3024733067636 144.14 376 144.14 C 369.6975266932364 144.14 364.5883636363637 138.95993513599998 364.5883636363637 132.57 Z" stroke-miterlimit="10"/></g><g transform="translate(10,10) scale(1,1)"><path fill="none" stroke="#000000" d="M 376 144.14 L 376 166.86" stroke-miterlimit="10"/></g><g transform="translate(10,10) scale(1,1)"><path fill="none" stroke="#000000" d="M 363.9170909090909 152.66 L 388.0829090909091 152.66" stroke-miterlimit="10"/></g><g transform="translate(10,10) scale(1,1)"><path fill="none" stroke="#000000" d="M 376 166.86 L 359.21818181818185 190" stroke-miterlimit="10"/></g><g transform="translate(10,10) scale(1,1)"><path fill="none" stroke="#000000" d="M 376 166.86 L 392.78181818181815 190" stroke-miterlimit="10"/></g><g transform="translate(10,10) scale(1,1)"><g><path fill="none" stroke="none"/><text fill="#000000" stroke="none" font-family="Arial" font-size="13px" font-style="normal" font-weight="bold" text-decoration="none" x="357.575927734375" y="210.5">Admin</text></g></g><g transform="translate(10,10) scale(1,1)"><path fill="#C0C0C0" stroke="none" d="M 839 188 C 839 172.5360256 890.487248 160 954 160 C 1017.512752 160 1069 172.5360256 1069 188 C 1069 203.4639744 1017.512752 216 954 216 C 890.487248 216 839 203.4639744 839 188 Z" opacity="0.2"/></g><g transform="translate(10,10) scale(1,1)"><path fill="#00a9ff" stroke="none" d="M 832 181 C 832 165.5360256 883.487248 153 947 153 C 1010.512752 153 1062 165.5360256 1062 181 C 1062 196.4639744 1010.512752 209 947 209 C 883.487248 209 832 196.4639744 832 181 Z"/></g><g transform="translate(10,10) scale(1,1)"><path fill="none" stroke="#000000" d="M 832 181 C 832 165.5360256 883.487248 153 947 153 C 1010.512752 153 1062 165.5360256 1062 181 C 1062 196.4639744 1010.512752 209 947 209 C 883.487248 209 832 196.4639744 832 181 Z" stroke-miterlimit="10"/></g><g transform="translate(10,10) scale(1,1)"><g><path fill="none" stroke="none"/><text fill="#000000" stroke="none" font-family="Arial" font-size="13px" font-style="normal" font-weight="bold" text-decoration="none" x="925.325927734375" y="188">register</text></g></g><g transform="translate(10,10) scale(1,1)"><path fill="#C0C0C0" stroke="none" d="M 839 262 C 839 246.5360256 890.487248 234 954 234 C 1017.512752 234 1069 246.5360256 1069 262 C 1069 277.4639744 1017.512752 290 954 290 C 890.487248 290 839 277.4639744 839 262 Z" opacity="0.2"/></g><g transform="translate(10,10) scale(1,1)"><path fill="#00a9ff" stroke="none" d="M 832 255 C 832 239.5360256 883.487248 227 947 227 C 1010.512752 227 1062 239.5360256 1062 255 C 1062 270.4639744 1010.512752 283 947 283 C 883.487248 283 832 270.4639744 832 255 Z"/></g><g transform="translate(10,10) scale(1,1)"><path fill="none" stroke="#000000" d="M 832 255 C 832 239.5360256 883.487248 227 947 227 C 1010.512752 227 1062 239.5360256 1062 255 C 1062 270.4639744 1010.512752 283 947 283 C 883.487248 283 832 270.4639744 832 255 Z" stroke-miterlimit="10"/></g><g transform="translate(10,10) scale(1,1)"><g><path fill="none" stroke="none"/><text fill="#000000" stroke="none" font-family="Arial" font-size="13px" font-style="normal" font-weight="bold" text-decoration="none" x="931.4609375" y="262">log in</text></g></g><g transform="translate(10,10) scale(1,1)"><path fill="#C0C0C0" stroke="none" d="M 839 336 C 839 320.5360256 890.487248 308 954 308 C 1017.512752 308 1069 320.5360256 1069 336 C 1069 351.4639744 1017.512752 364 954 364 C 890.487248 364 839 351.4639744 839 336 Z" opacity="0.2"/></g><g transform="translate(10,10) scale(1,1)"><path fill="#00a9ff" stroke="none" d="M 832 329 C 832 313.5360256 883.487248 301 947 301 C 1010.512752 301 1062 313.5360256 1062 329 C 1062 344.4639744 1010.512752 357 947 357 C 883.487248 357 832 344.4639744 832 329 Z"/></g><g transform="translate(10,10) scale(1,1)"><path fill="none" stroke="#000000" d="M 832 329 C 832 313.5360256 883.487248 301 947 301 C 1010.512752 301 1062 313.5360256 1062 329 C 1062 344.4639744 1010.512752 357 947 357 C 883.487248 357 832 344.4639744 832 329 Z" stroke-miterlimit="10"/></g><g transform="translate(10,10) scale(1,1)"><g><path fill="none" stroke="none"/><text fill="#000000" stroke="none" font-family="Arial" font-size="13px" font-style="normal" font-weight="bold" text-decoration="none" x="927.484130859375" y="336">log out</text></g></g><g transform="translate(10,10) scale(1,1)"><path fill="#C0C0C0" stroke="none" d="M 839 410 C 839 394.5360256 890.487248 382 954 382 C 1017.512752 382 1069 394.5360256 1069 410 C 1069 425.4639744 1017.512752 438 954 438 C 890.487248 438 839 425.4639744 839 410 Z" opacity="0.2"/></g><g transform="translate(10,10) scale(1,1)"><path fill="#00a9ff" stroke="none" d="M 832 403 C 832 387.5360256 883.487248 375 947 375 C 1010.512752 375 1062 387.5360256 1062 403 C 1062 418.4639744 1010.512752 431 947 431 C 883.487248 431 832 418.4639744 832 403 Z"/></g><g transform="translate(10,10) scale(1,1)"><path fill="none" stroke="#000000" d="M 832 403 C 832 387.5360256 883.487248 375 947 375 C 1010.512752 375 1062 387.5360256 1062 403 C 1062 418.4639744 1010.512752 431 947 431 C 883.487248 431 832 418.4639744 832 403 Z" stroke-miterlimit="10"/></g><g transform="translate(10,10) scale(1,1)"><g><path fill="none" stroke="none"/><text fill="#000000" stroke="none" font-family="Arial" font-size="13px" font-style="normal" font-weight="bold" text-decoration="none" x="898.938720703125" y="410">manage account</text></g></g><g transform="translate(10,10) scale(1,1)"><path fill="#C0C0C0" stroke="none" d="M 839 571 C 839 555.5360256 890.487248 543 954 543 C 1017.512752 543 1069 555.5360256 1069 571 C 1069 586.4639744 1017.512752 599 954 599 C 890.487248 599 839 586.4639744 839 571 Z" opacity="0.2"/></g><g transform="translate(10,10) scale(1,1)"><path fill="#00a9ff" stroke="none" d="M 832 564 C 832 548.5360256 883.487248 536 947 536 C 1010.512752 536 1062 548.5360256 1062 564 C 1062 579.4639744 1010.512752 592 947 592 C 883.487248 592 832 579.4639744 832 564 Z"/></g><g transform="translate(10,10) scale(1,1)"><path fill="none" stroke="#000000" d="M 832 564 C 832 548.5360256 883.487248 536 947 536 C 1010.512752 536 1062 548.5360256 1062 564 C 1062 579.4639744 1010.512752 592 947 592 C 883.487248 592 832 579.4639744 832 564 Z" stroke-miterlimit="10"/></g><g transform="translate(10,10) scale(1,1)"><g><path fill="none" stroke="none"/><text fill="#000000" stroke="none" font-family="Arial" font-size="13px" font-style="normal" font-weight="bold" text-decoration="none" x="875.4619140625" y="571">search available courses</text></g></g><g transform="translate(10,10) scale(1,1)"><path fill="#C0C0C0" stroke="none" d="M 839 643 C 839 627.5360256 890.487248 615 954 615 C 1017.512752 615 1069 627.5360256 1069 643 C 1069 658.4639744 1017.512752 671 954 671 C 890.487248 671 839 658.4639744 839 643 Z" opacity="0.2"/></g><g transform="translate(10,10) scale(1,1)"><path fill="#ffffff" stroke="none" d="M 832 636 C 832 620.5360256 883.487248 608 947 608 C 1010.512752 608 1062 620.5360256 1062 636 C 1062 651.4639744 1010.512752 664 947 664 C 883.487248 664 832 651.4639744 832 636 Z"/></g><g transform="translate(10,10) scale(1,1)"><path fill="none" stroke="#000000" d="M 832 636 C 832 620.5360256 883.487248 608 947 608 C 1010.512752 608 1062 620.5360256 1062 636 C 1062 651.4639744 1010.512752 664 947 664 C 883.487248 664 832 651.4639744 832 636 Z" stroke-miterlimit="10"/></g><g transform="translate(10,10) scale(1,1)"><g><path fill="none" stroke="none"/><text fill="#000000" stroke="none" font-family="Arial" font-size="13px" font-style="normal" font-weight="bold" text-decoration="none" x="911.589599609375" y="643">book course</text></g></g><g transform="translate(10,10) scale(1,1)"><path fill="#C0C0C0" stroke="none" d="M 839 715 C 839 699.5360256 890.7111056 687 954.5 687 C 1018.2888944 687 1070 699.5360256 1070 715 C 1070 730.4639744 1018.2888944 743 954.5 743 C 890.7111056 743 839 730.4639744 839 715 Z" opacity="0.2"/></g><g transform="translate(10,10) scale(1,1)"><path fill="#00a9ff" stroke="none" d="M 832 708 C 832 692.5360256 883.7111056 680 947.5 680 C 1011.2888944 680 1063 692.5360256 1063 708 C 1063 723.4639744 1011.2888944 736 947.5 736 C 883.7111056 736 832 723.4639744 832 708 Z"/></g><g transform="translate(10,10) scale(1,1)"><path fill="none" stroke="#000000" d="M 832 708 C 832 692.5360256 883.7111056 680 947.5 680 C 1011.2888944 680 1063 692.5360256 1063 708 C 1063 723.4639744 1011.2888944 736 947.5 736 C 883.7111056 736 832 723.4639744 832 708 Z" stroke-miterlimit="10"/></g><g transform="translate(10,10) scale(1,1)"><g><path fill="none" stroke="none"/><text fill="#000000" stroke="none" font-family="Arial" font-size="13px" font-style="normal" font-weight="bold" text-decoration="none" x="875.23193359375" y="715">offer and manage course</text></g></g><g transform="translate(10,10) scale(1,1)"><path fill="#C0C0C0" stroke="none" d="M 839 787 C 839 771.5360256 890.487248 759 954 759 C 1017.512752 759 1069 771.5360256 1069 787 C 1069 802.4639744 1017.512752 815 954 815 C 890.487248 815 839 802.4639744 839 787 Z" opacity="0.2"/></g><g transform="translate(10,10) scale(1,1)"><path fill="#ffffff" stroke="none" d="M 832 780 C 832 764.5360256 883.487248 752 947 752 C 1010.512752 752 1062 764.5360256 1062 780 C 1062 795.4639744 1010.512752 808 947 808 C 883.487248 808 832 795.4639744 832 780 Z"/></g><g transform="translate(10,10) scale(1,1)"><path fill="none" stroke="#000000" d="M 832 780 C 832 764.5360256 883.487248 752 947 752 C 1010.512752 752 1062 764.5360256 1062 780 C 1062 795.4639744 1010.512752 808 947 808 C 883.487248 808 832 795.4639744 832 780 Z" stroke-miterlimit="10"/></g><g transform="translate(10,10) scale(1,1)"><g><path fill="none" stroke="none"/><text fill="#000000" stroke="none" font-family="Arial" font-size="13px" font-style="normal" font-weight="bold" text-decoration="none" x="914.484130859375" y="787">rate course</text></g></g><g transform="translate(10,10) scale(1,1)"><path fill="none" stroke="#000000" d="M 1192 392 L 1144 392 L 1144 568 L 1062 568" stroke-miterlimit="10"/></g><g transform="translate(10,10) scale(1,1)"><rect fill="#C0C0C0" stroke="none" x="487" y="423" width="99.20000000000005" height="15" opacity="0.2"/></g><g transform="translate(10,10) scale(1,1)"><rect fill="#C0C0C0" stroke="none" x="487" y="437" width="248" height="402" opacity="0.2"/></g><g transform="translate(10,10) scale(1,1)"><rect fill="#ffffff" stroke="none" x="480" y="431" width="248" height="401"/></g><g transform="translate(10,10) scale(1,1)"><path fill="none" stroke="#000000" d="M 480 431 L 728 431 L 728 832 L 480 832 L 480 431 Z Z" stroke-miterlimit="10"/></g><g transform="translate(10,10) scale(1,1)"><rect fill="#ffffff" stroke="none" x="480" y="416" width="99.20000000000005" height="15"/></g><g transform="translate(10,10) scale(1,1)"><path fill="none" stroke="#000000" d="M 480 416 L 579.2 416 L 579.2 431 L 480 431 L 480 416 Z Z" stroke-miterlimit="10"/></g><g transform="translate(10,10) scale(1,1)"><rect fill="#ffffff" stroke="none" x="480" y="430" width="248" height="402"/></g><g transform="translate(10,10) scale(1,1)"><path fill="none" stroke="#000000" d="M 480 430 L 728 430 L 728 832 L 480 832 L 480 430 Z Z" stroke-miterlimit="10"/></g><g transform="translate(10,10) scale(1,1)"><path fill="none" stroke="#000000" d="M 571.2 419 L 571.2 423" stroke-miterlimit="10"/></g><g transform="translate(10,10) scale(1,1)"><path fill="none" stroke="#000000" d="M 568.2 427 L 568.2 423 L 574.2 423" stroke-miterlimit="10"/></g><g transform="translate(10,10) scale(1,1)"><path fill="none" stroke="#000000" d="M 574.2 427 L 574.2 423 L 568.2 423" stroke-miterlimit="10"/></g><g transform="translate(10,10) scale(1,1)"><g><path fill="none" stroke="none"/><text fill="#000000" stroke="none" font-family="Arial" font-size="13px" font-style="normal" font-weight="bold" text-decoration="none" x="573.280517578125" y="450.5">dashboard</text></g></g><g transform="translate(10,10) scale(1,1)"><path fill="#C0C0C0" stroke="none" d="M 495 787 C 495 771.5360256 546.487248 759 610 759 C 673.512752 759 725 771.5360256 725 787 C 725 802.4639744 673.512752 815 610 815 C 546.487248 815 495 802.4639744 495 787 Z" opacity="0.2"/></g><g transform="translate(10,10) scale(1,1)"><path fill="#ffffff" stroke="none" d="M 488 780 C 488 764.5360256 539.487248 752 603 752 C 666.512752 752 718 764.5360256 718 780 C 718 795.4639744 666.512752 808 603 808 C 539.487248 808 488 795.4639744 488 780 Z"/></g><g transform="translate(10,10) scale(1,1)"><path fill="none" stroke="#000000" d="M 488 780 C 488 764.5360256 539.487248 752 603 752 C 666.512752 752 718 764.5360256 718 780 C 718 795.4639744 666.512752 808 603 808 C 539.487248 808 488 795.4639744 488 780 Z" stroke-miterlimit="10"/></g><g transform="translate(10,10) scale(1,1)"><g><path fill="none" stroke="none"/><text fill="#000000" stroke="none" font-family="Arial" font-size="13px" font-style="normal" font-weight="bold" text-decoration="none" x="564.695068359375" y="787">see schedule</text></g></g><g transform="translate(10,10) scale(1,1)"><path fill="#C0C0C0" stroke="none" d="M 495 715 C 495 699.5360256 546.487248 687 610 687 C 673.512752 687 725 699.5360256 725 715 C 725 730.4639744 673.512752 743 610 743 C 546.487248 743 495 730.4639744 495 715 Z" opacity="0.2"/></g><g transform="translate(10,10) scale(1,1)"><path fill="#ffffff" stroke="none" d="M 488 708 C 488 692.5360256 539.487248 680 603 680 C 666.512752 680 718 692.5360256 718 708 C 718 723.4639744 666.512752 736 603 736 C 539.487248 736 488 723.4639744 488 708 Z"/></g><g transform="translate(10,10) scale(1,1)"><path fill="none" stroke="#000000" d="M 488 708 C 488 692.5360256 539.487248 680 603 680 C 666.512752 680 718 692.5360256 718 708 C 718 723.4639744 666.512752 736 603 736 C 539.487248 736 488 723.4639744 488 708 Z" stroke-miterlimit="10"/></g><g transform="translate(10,10) scale(1,1)"><g><path fill="none" stroke="none"/><text fill="#000000" stroke="none" font-family="Arial" font-size="13px" font-style="normal" font-weight="bold" text-decoration="none" x="566.87548828125" y="715">see skill tree</text></g></g><g transform="translate(10,10) scale(1,1)"><path fill="#C0C0C0" stroke="none" d="M 495 643 C 495 627.5360256 546.487248 615 610 615 C 673.512752 615 725 627.5360256 725 643 C 725 658.4639744 673.512752 671 610 671 C 546.487248 671 495 658.4639744 495 643 Z" opacity="0.2"/></g><g transform="translate(10,10) scale(1,1)"><path fill="#ffffff" stroke="none" d="M 488 636 C 488 620.5360256 539.487248 608 603 608 C 666.512752 608 718 620.5360256 718 636 C 718 651.4639744 666.512752 664 603 664 C 539.487248 664 488 651.4639744 488 636 Z"/></g><g transform="translate(10,10) scale(1,1)"><path fill="none" stroke="#000000" d="M 488 636 C 488 620.5360256 539.487248 608 603 608 C 666.512752 608 718 620.5360256 718 636 C 718 651.4639744 666.512752 664 603 664 C 539.487248 664 488 651.4639744 488 636 Z" stroke-miterlimit="10"/></g><g transform="translate(10,10) scale(1,1)"><g><path fill="none" stroke="none"/><text fill="#000000" stroke="none" font-family="Arial" font-size="13px" font-style="normal" font-weight="bold" text-decoration="none" x="543.38916015625" y="643">check course ratings</text></g></g><g transform="translate(10,10) scale(1,1)"><path fill="none" stroke="#000000" d="M 432 440 L 480 440" stroke-miterlimit="10"/></g><g transform="translate(10,10) scale(1,1)"><path fill="#C0C0C0" stroke="none" d="M 495 571 C 495 555.5360256 546.487248 543 610 543 C 673.512752 543 725 555.5360256 725 571 C 725 586.4639744 673.512752 599 610 599 C 546.487248 599 495 586.4639744 495 571 Z" opacity="0.2"/></g><g transform="translate(10,10) scale(1,1)"><path fill="#ffffff" stroke="none" d="M 488 564 C 488 548.5360256 539.487248 536 603 536 C 666.512752 536 718 548.5360256 718 564 C 718 579.4639744 666.512752 592 603 592 C 539.487248 592 488 579.4639744 488 564 Z"/></g><g transform="translate(10,10) scale(1,1)"><path fill="none" stroke="#000000" d="M 488 564 C 488 548.5360256 539.487248 536 603 536 C 666.512752 536 718 548.5360256 718 564 C 718 579.4639744 666.512752 592 603 592 C 539.487248 592 488 579.4639744 488 564 Z" stroke-miterlimit="10"/></g><g transform="translate(10,10) scale(1,1)"><g><path fill="none" stroke="none"/><text fill="#000000" stroke="none" font-family="Arial" font-size="13px" font-style="normal" font-weight="bold" text-decoration="none" x="540.869140625" y="571">see recomm. courses</text></g></g><g transform="translate(10,10) scale(1,1)"><rect fill="#C0C0C0" stroke="none" x="487" y="95" width="99.20000000000005" height="15" opacity="0.2"/></g><g transform="translate(10,10) scale(1,1)"><rect fill="#C0C0C0" stroke="none" x="487" y="109" width="248" height="178" opacity="0.2"/></g><g transform="translate(10,10) scale(1,1)"><rect fill="#ffffff" stroke="none" x="480" y="103" width="248" height="177"/></g><g transform="translate(10,10) scale(1,1)"><path fill="none" stroke="#000000" d="M 480 103 L 728 103 L 728 280 L 480 280 L 480 103 Z Z" stroke-miterlimit="10"/></g><g transform="translate(10,10) scale(1,1)"><rect fill="#ffffff" stroke="none" x="480" y="88" width="99.20000000000005" height="15"/></g><g transform="translate(10,10) scale(1,1)"><path fill="none" stroke="#000000" d="M 480 88 L 579.2 88 L 579.2 103 L 480 103 L 480 88 Z Z" stroke-miterlimit="10"/></g><g transform="translate(10,10) scale(1,1)"><rect fill="#ffffff" stroke="none" x="480" y="102" width="248" height="178"/></g><g transform="translate(10,10) scale(1,1)"><path fill="none" stroke="#000000" d="M 480 102 L 728 102 L 728 280 L 480 280 L 480 102 Z Z" stroke-miterlimit="10"/></g><g transform="translate(10,10) scale(1,1)"><path fill="none" stroke="#000000" d="M 571.2 91 L 571.2 95" stroke-miterlimit="10"/></g><g transform="translate(10,10) scale(1,1)"><path fill="none" stroke="#000000" d="M 568.2 99 L 568.2 95 L 574.2 95" stroke-miterlimit="10"/></g><g transform="translate(10,10) scale(1,1)"><path fill="none" stroke="#000000" d="M 574.2 99 L 574.2 95 L 568.2 95" stroke-miterlimit="10"/></g><g transform="translate(10,10) scale(1,1)"><g><path fill="none" stroke="none"/><text fill="#000000" stroke="none" font-family="Arial" font-size="13px" font-style="normal" font-weight="bold" text-decoration="none" x="562.08642578125" y="122.5">admin console</text></g></g><g transform="translate(10,10) scale(1,1)"><path fill="#C0C0C0" stroke="none" d="M 495 243 C 495 227.5360256 546.487248 215 610 215 C 673.512752 215 725 227.5360256 725 243 C 725 258.4639744 673.512752 271 610 271 C 546.487248 271 495 258.4639744 495 243 Z" opacity="0.2"/></g><g transform="translate(10,10) scale(1,1)"><path fill="#ffffff" stroke="none" d="M 488 236 C 488 220.5360256 539.487248 208 603 208 C 666.512752 208 718 220.5360256 718 236 C 718 251.4639744 666.512752 264 603 264 C 539.487248 264 488 251.4639744 488 236 Z"/></g><g transform="translate(10,10) scale(1,1)"><path fill="none" stroke="#000000" d="M 488 236 C 488 220.5360256 539.487248 208 603 208 C 666.512752 208 718 220.5360256 718 236 C 718 251.4639744 666.512752 264 603 264 C 539.487248 264 488 251.4639744 488 236 Z" stroke-miterlimit="10"/></g><g transform="translate(10,10) scale(1,1)"><g><path fill="none" stroke="none"/><text fill="#000000" stroke="none" font-family="Arial" font-size="13px" font-style="normal" font-weight="bold" text-decoration="none" x="557.839599609375" y="243">moderate users</text></g></g><g transform="translate(10,10) scale(1,1)"><path fill="#C0C0C0" stroke="none" d="M 495 172 C 495 156.5360256 546.487248 144 610 144 C 673.512752 144 725 156.5360256 725 172 C 725 187.4639744 673.512752 200 610 200 C 546.487248 200 495 187.4639744 495 172 Z" opacity="0.2"/></g><g transform="translate(10,10) scale(1,1)"><path fill="#ffffff" stroke="none" d="M 488 165 C 488 149.5360256 539.487248 137 603 137 C 666.512752 137 718 149.5360256 718 165 C 718 180.4639744 666.512752 193 603 193 C 539.487248 193 488 180.4639744 488 165 Z"/></g><g transform="translate(10,10) scale(1,1)"><path fill="none" stroke="#000000" d="M 488 165 C 488 149.5360256 539.487248 137 603 137 C 666.512752 137 718 149.5360256 718 165 C 718 180.4639744 666.512752 193 603 193 C 539.487248 193 488 180.4639744 488 165 Z" stroke-miterlimit="10"/></g><g transform="translate(10,10) scale(1,1)"><g><path fill="none" stroke="none"/><text fill="#000000" stroke="none" font-family="Arial" font-size="13px" font-style="normal" font-weight="bold" text-decoration="none" x="550.974609375" y="172">moderate courses</text></g></g><g transform="translate(10,10) scale(1,1)"><path fill="none" stroke="#000000" d="M 432 368 L 776 368 L 776 328 L 832 328" stroke-miterlimit="10"/></g><g transform="translate(10,10) scale(1,1)"><path fill="none" stroke="#000000" d="M 432 368 L 776 368 L 776 408 L 832 408" stroke-miterlimit="10"/></g><g transform="translate(10,10) scale(1,1)"><path fill="none" stroke="#000000" d="M 432 368 L 776 368 L 776 512 L 824 512" stroke-miterlimit="10"/></g><g transform="translate(10,10) scale(1,1)"><path fill="none" stroke="#000000" d="M 408 160 L 440 160 L 440 112 L 480 112" stroke-miterlimit="10"/></g><g transform="translate(10,10) scale(1,1)"><path fill="#C0C0C0" stroke="none" d="M 495 499 C 495 483.5360256 546.487248 471 610 471 C 673.512752 471 725 483.5360256 725 499 C 725 514.4639744 673.512752 527 610 527 C 546.487248 527 495 514.4639744 495 499 Z" opacity="0.2"/></g><g transform="translate(10,10) scale(1,1)"><path fill="#00a9ff" stroke="none" d="M 488 492 C 488 476.5360256 539.487248 464 603 464 C 666.512752 464 718 476.5360256 718 492 C 718 507.4639744 666.512752 520 603 520 C 539.487248 520 488 507.4639744 488 492 Z"/></g><g transform="translate(10,10) scale(1,1)"><path fill="none" stroke="#000000" d="M 488 492 C 488 476.5360256 539.487248 464 603 464 C 666.512752 464 718 476.5360256 718 492 C 718 507.4639744 666.512752 520 603 520 C 539.487248 520 488 507.4639744 488 492 Z" stroke-miterlimit="10"/></g><g transform="translate(10,10) scale(1,1)"><g><path fill="none" stroke="none"/><text fill="#000000" stroke="none" font-family="Arial" font-size="13px" font-style="normal" font-weight="bold" text-decoration="none" x="544.1064453125" y="499">see available credits</text></g></g><g transform="translate(10,10) scale(1,1)"><path fill="none" stroke="#000000" d="M 1062 256 L 1144 256 L 1144 392 L 1192 392" stroke-miterlimit="10"/></g><g transform="translate(10,10) scale(1,1)"><path fill="none" stroke="#000000" d="M 719 780 L 831 780" stroke-miterlimit="10" stroke-dasharray="3"/></g><g transform="translate(10,10) scale(1,1)"><path fill="none" stroke="#000000" d="M 820.8373251423759 784.209517756016 L 831 780 L 820.8373251423758 775.790482243984" stroke-miterlimit="10"/></g><g transform="translate(10,10) scale(1,1)"><g><path fill="none" stroke="none"/><text fill="#000000" stroke="none" font-family="Arial" font-size="13px" font-style="normal" font-weight="normal" text-decoration="none" x="748" y="773">«access»</text></g></g><g transform="translate(10,10) scale(1,1)"><path fill="#C0C0C0" stroke="none" d="M 182 718.5 C 182 703.312168 224.9806592 691 278 691 C 331.0193408 691 374 703.312168 374 718.5 C 374 733.687832 331.0193408 746 278 746 C 224.9806592 746 182 733.687832 182 718.5 Z" opacity="0.2"/></g><g transform="translate(10,10) scale(1,1)"><path fill="#ffffff" stroke="none" d="M 175 711.5 C 175 696.312168 217.9806592 684 271 684 C 324.0193408 684 367 696.312168 367 711.5 C 367 726.687832 324.0193408 739 271 739 C 217.9806592 739 175 726.687832 175 711.5 Z"/></g><g transform="translate(10,10) scale(1,1)"><path fill="none" stroke="#000000" d="M 175 711.5 C 175 696.312168 217.9806592 684 271 684 C 324.0193408 684 367 696.312168 367 711.5 C 367 726.687832 324.0193408 739 271 739 C 217.9806592 739 175 726.687832 175 711.5 Z" stroke-miterlimit="10"/></g><g transform="translate(10,10) scale(1,1)"><g><path fill="none" stroke="none"/><text fill="#000000" stroke="none" font-family="Arial" font-size="13px" font-style="normal" font-weight="bold" text-decoration="none" x="237.760498046875" y="718.5">give course</text></g></g><g transform="translate(10,10) scale(1,1)"><path fill="#C0C0C0" stroke="none" d="M 182 642.5 C 182 627.312168 224.9806592 615 278 615 C 331.0193408 615 374 627.312168 374 642.5 C 374 657.687832 331.0193408 670 278 670 C 224.9806592 670 182 657.687832 182 642.5 Z" opacity="0.2"/></g><g transform="translate(10,10) scale(1,1)"><path fill="#ffffff" stroke="none" d="M 175 635.5 C 175 620.312168 217.9806592 608 271 608 C 324.0193408 608 367 620.312168 367 635.5 C 367 650.687832 324.0193408 663 271 663 C 217.9806592 663 175 650.687832 175 635.5 Z"/></g><g transform="translate(10,10) scale(1,1)"><path fill="none" stroke="#000000" d="M 175 635.5 C 175 620.312168 217.9806592 608 271 608 C 324.0193408 608 367 620.312168 367 635.5 C 367 650.687832 324.0193408 663 271 663 C 217.9806592 663 175 650.687832 175 635.5 Z" stroke-miterlimit="10"/></g><g transform="translate(10,10) scale(1,1)"><g><path fill="none" stroke="none"/><text fill="#000000" stroke="none" font-family="Arial" font-size="13px" font-style="normal" font-weight="bold" text-decoration="none" x="237.3955078125" y="642.5">plan course</text></g></g><g transform="translate(10,10) scale(1,1)"><path fill="#C0C0C0" stroke="none" d="M 182 794.5 C 182 779.312168 224.9806592 767 278 767 C 331.0193408 767 374 779.312168 374 794.5 C 374 809.687832 331.0193408 822 278 822 C 224.9806592 822 182 809.687832 182 794.5 Z" opacity="0.2"/></g><g transform="translate(10,10) scale(1,1)"><path fill="#ffffff" stroke="none" d="M 175 787.5 C 175 772.312168 217.9806592 760 271 760 C 324.0193408 760 367 772.312168 367 787.5 C 367 802.687832 324.0193408 815 271 815 C 217.9806592 815 175 802.687832 175 787.5 Z"/></g><g transform="translate(10,10) scale(1,1)"><path fill="none" stroke="#000000" d="M 175 787.5 C 175 772.312168 217.9806592 760 271 760 C 324.0193408 760 367 772.312168 367 787.5 C 367 802.687832 324.0193408 815 271 815 C 217.9806592 815 175 802.687832 175 787.5 Z" stroke-miterlimit="10"/></g><g transform="translate(10,10) scale(1,1)"><g><path fill="none" stroke="none"/><text fill="#000000" stroke="none" font-family="Arial" font-size="13px" font-style="normal" font-weight="bold" text-decoration="none" x="212.830078125" y="794.5">participate in course</text></g></g><g transform="translate(10,10) scale(1,1)"><path fill="none" stroke="#000000" d="M 384 456 L 384 632 L 367 632" stroke-miterlimit="10"/></g><g transform="translate(10,10) scale(1,1)"><path fill="none" stroke="#000000" d="M 384 456 L 384 712 L 367 712" stroke-miterlimit="10"/></g><g transform="translate(10,10) scale(1,1)"><path fill="none" stroke="#000000" d="M 384 456 L 384 784 L 367 784" stroke-miterlimit="10"/></g><g transform="translate(10,10) scale(1,1)"><path fill="#C0C0C0" stroke="none" d="M 1167 811 C 1167 795.5360256 1218.487248 783 1282 783 C 1345.512752 783 1397 795.5360256 1397 811 C 1397 826.4639744 1345.512752 839 1282 839 C 1218.487248 839 1167 826.4639744 1167 811 Z" opacity="0.2"/></g><g transform="translate(10,10) scale(1,1)"><path fill="#ffffff" stroke="none" d="M 1160 804 C 1160 788.5360256 1211.487248 776 1275 776 C 1338.512752 776 1390 788.5360256 1390 804 C 1390 819.4639744 1338.512752 832 1275 832 C 1211.487248 832 1160 819.4639744 1160 804 Z"/></g><g transform="translate(10,10) scale(1,1)"><path fill="none" stroke="#000000" d="M 1160 804 C 1160 788.5360256 1211.487248 776 1275 776 C 1338.512752 776 1390 788.5360256 1390 804 C 1390 819.4639744 1338.512752 832 1275 832 C 1211.487248 832 1160 819.4639744 1160 804 Z" stroke-miterlimit="10"/></g><g transform="translate(10,10) scale(1,1)"><g><path fill="none" stroke="none"/><text fill="#000000" stroke="none" font-family="Arial" font-size="13px" font-style="normal" font-weight="bold" text-decoration="none" x="1237.41552734375" y="811">planned later</text></g></g><g transform="translate(10,10) scale(1,1)"><g><path fill="none" stroke="none"/><text fill="#000000" stroke="none" font-family="Arial" font-size="13px" font-style="normal" font-weight="normal" text-decoration="none" x="1165" y="690">Legend</text></g></g><g transform="translate(10,10) scale(1,1)"><path fill="none" stroke="#000000" d="M 377 217 L 378 359" stroke-miterlimit="10" stroke-dasharray="3"/></g><g transform="translate(10,10) scale(1,1)"><path fill="none" stroke="#000000" d="M 373.7190202638981 348.86722088965297 L 378 359 L 382.13784701967194 348.8079333772884" stroke-miterlimit="10"/></g><g transform="translate(10,10) scale(1,1)"><g><path fill="none" stroke="none"/><text fill="#000000" stroke="none" font-family="Arial" font-size="13px" font-style="normal" font-weight="normal" text-decoration="none" x="380" y="294">«extend»</text></g></g><g transform="translate(10,10) scale(1,1)"><path fill="#C0C0C0" stroke="none" d="M 1167 739 C 1167 723.5360256 1218.9349632 711 1283 711 C 1347.0650368 711 1399 723.5360256 1399 739 C 1399 754.4639744 1347.0650368 767 1283 767 C 1218.9349632 767 1167 754.4639744 1167 739 Z" opacity="0.2"/></g><g transform="translate(10,10) scale(1,1)"><path fill="#00a9ff" stroke="none" d="M 1160 732 C 1160 716.5360256 1211.9349632 704 1276 704 C 1340.0650368 704 1392 716.5360256 1392 732 C 1392 747.4639744 1340.0650368 760 1276 760 C 1211.9349632 760 1160 747.4639744 1160 732 Z"/></g><g transform="translate(10,10) scale(1,1)"><path fill="none" stroke="#000000" d="M 1160 732 C 1160 716.5360256 1211.9349632 704 1276 704 C 1340.0650368 704 1392 716.5360256 1392 732 C 1392 747.4639744 1340.0650368 760 1276 760 C 1211.9349632 760 1160 747.4639744 1160 732 Z" stroke-miterlimit="10"/></g><g transform="translate(10,10) scale(1,1)"><g><path fill="none" stroke="none"/><text fill="#000000" stroke="none" font-family="Arial" font-size="13px" font-style="normal" font-weight="bold" text-decoration="none" x="1207.3310546875" y="739">planned for end of 2016</text></g></g></g></svg>